<?xml version="1.0" encoding="UTF-8" standalone="no" ?>
<!DOCTYPE svg PUBLIC "-//W3C//DTD SVG 1.1//EN" "http://www.w3.org/Graphics/SVG/1.1/DTD/svg11.dtd">
<svg xmlns="http://www.w3.org/2000/svg" xmlns:xlink="http://www.w3.org/1999/xlink" version="1.1" width="1771" height="2002" viewBox="0 0 1771 2002" xml:space="preserve">
<desc>Created with Fabric.js 4.2.0</desc>
<defs>
</defs>
<g transform="matrix(1 0 0 1 885.5 1001)" id="c2497d1d-7094-46a9-994f-0a51829f5097"  >
<rect style="stroke: none; stroke-width: 1; stroke-dasharray: none; stroke-linecap: butt; stroke-dashoffset: 0; stroke-linejoin: miter; stroke-miterlimit: 4; fill: rgb(255,255,255); fill-rule: nonzero; opacity: 1; visibility: hidden;" vector-effect="non-scaling-stroke"  x="-885.5" y="-1001" rx="0" ry="0" width="1771" height="2002" />
</g>
<g transform="matrix(Infinity NaN NaN Infinity 0 0)" id="b527fb9e-37c7-47eb-88ad-d48b24d2f4bc"  >
</g>
<g transform="matrix(0.69 0 0 0.78 893.87 1001.79)"  >
<g style="" vector-effect="non-scaling-stroke"   >
		<g transform="matrix(9.77 0 0 9.77 0 0)"  >
<path style="stroke: none; stroke-width: 1; stroke-dasharray: none; stroke-linecap: butt; stroke-dashoffset: 0; stroke-linejoin: miter; stroke-miterlimit: 4; fill: rgb(86,61,124); fill-rule: nonzero; opacity: 1;" vector-effect="non-scaling-stroke"  transform=" translate(-128, -128)" d="M 0 222.991 C 0 241.223 14.779 256 33.009 256 L 222.99 256 C 241.223 256 256 241.221 256 222.991 L 256 33.01 C 256 14.777 241.221 0 222.991 0 L 33.01 0 C 14.777 0 0 14.779 0 33.009 L 0 222.99 z" stroke-linecap="round" />
</g>
		<g transform="matrix(9.77 0 0 9.77 87.73 0)"  >
<path style="stroke: none; stroke-width: 1; stroke-dasharray: none; stroke-linecap: butt; stroke-dashoffset: 0; stroke-linejoin: miter; stroke-miterlimit: 4; fill: rgb(255,255,255); fill-rule: nonzero; opacity: 1;" vector-effect="non-scaling-stroke"  transform=" translate(-136.98, -128)" d="M 106.158 113.238 L 106.158 76.985 L 138.06900000000002 76.985 C 141.109 76.985 144.03900000000002 77.238 146.86100000000002 77.745 C 149.68300000000002 78.251 152.18 79.155 154.35100000000003 80.458 C 156.52100000000002 81.761 158.25800000000004 83.57 159.56100000000004 85.88499999999999 C 160.86300000000003 88.201 161.51500000000004 91.16799999999999 161.51500000000004 94.785 C 161.51500000000004 101.298 159.56100000000004 106.002 155.65300000000005 108.896 C 151.74600000000004 111.791 146.75300000000004 113.238 140.67400000000004 113.238 L 106.15800000000004 113.238 z M 72.075 50.5 L 72.075 205.5 L 147.187 205.5 C 154.13400000000001 205.5 160.9 204.632 167.485 202.895 C 174.07000000000002 201.15800000000002 179.931 198.48100000000002 185.06900000000002 194.863 C 190.20600000000002 191.245 194.29500000000002 186.577 197.334 180.861 C 200.374 175.14399999999998 201.893 168.378 201.893 160.563 C 201.893 150.86599999999999 199.541 142.581 194.838 135.707 C 190.134 128.832 183.006 124.02 173.454 121.27 C 180.401 117.942 185.648 113.672 189.19400000000002 108.46199999999999 C 192.739 103.252 194.51200000000003 96.74 194.51200000000003 88.92399999999999 C 194.51200000000003 81.68799999999999 193.31800000000004 75.60999999999999 190.93000000000004 70.689 C 188.54200000000003 65.76899999999999 185.17700000000002 61.82499999999999 180.83500000000004 58.85799999999999 C 176.49400000000003 55.89099999999999 171.28400000000005 53.755999999999986 165.20500000000004 52.45399999999999 C 159.12700000000004 51.150999999999996 152.39700000000005 50.49999999999999 145.01600000000005 50.49999999999999 L 72.075 50.49999999999999 z M 106.158 179.015 L 106.158 136.46599999999998 L 143.279 136.46599999999998 C 150.66 136.46599999999998 156.594 138.16599999999997 161.081 141.56799999999998 C 165.56699999999998 144.969 167.81099999999998 150.64899999999997 167.81099999999998 158.60899999999998 C 167.81099999999998 162.66199999999998 167.123 165.98999999999998 165.748 168.59499999999997 C 164.373 171.19999999999996 162.528 173.26299999999998 160.212 174.78199999999998 C 157.897 176.302 155.219 177.38699999999997 152.17999999999998 178.039 C 149.14 178.689 145.95699999999997 179.015 142.628 179.015 L 106.15799999999999 179.015 z" stroke-linecap="round" />
</g>
</g>
</g>
</svg>