<?xml version="1.0" encoding="UTF-8" standalone="no" ?>
<!DOCTYPE svg PUBLIC "-//W3C//DTD SVG 1.1//EN" "http://www.w3.org/Graphics/SVG/1.1/DTD/svg11.dtd">
<svg xmlns="http://www.w3.org/2000/svg" xmlns:xlink="http://www.w3.org/1999/xlink" version="1.1" width="1771" height="2002" viewBox="0 0 1771 2002" xml:space="preserve">
<desc>Created with Fabric.js 4.2.0</desc>
<defs>
</defs>
<rect x="0" y="0" width="100%" height="100%" fill="transparent"></rect>
<g transform="matrix(1 0 0 1 885.5 1001)" id="7cc00706-b48f-4a40-bb54-ab4a3df3bb54"  >
<rect style="stroke: none; stroke-width: 1; stroke-dasharray: none; stroke-linecap: butt; stroke-dashoffset: 0; stroke-linejoin: miter; stroke-miterlimit: 4; fill: rgb(255,255,255); fill-rule: nonzero; opacity: 1; visibility: hidden;" vector-effect="non-scaling-stroke"  x="-885.5" y="-1001" rx="0" ry="0" width="1771" height="2002" />
</g>
<g transform="matrix(Infinity NaN NaN Infinity 0 0)" id="82205db0-0a6a-4ff5-b433-5ff197e667d6"  >
</g>
<g transform="matrix(1.18 0 0 1.24 885.5 823.93)"  >
<g style="" vector-effect="non-scaling-stroke"   >
		<g transform="matrix(1 0 0 1 -849.76 -809.89)"  >
<rect style="stroke: none; stroke-width: 1; stroke-dasharray: none; stroke-linecap: butt; stroke-dashoffset: 0; stroke-linejoin: miter; stroke-miterlimit: 4; fill: rgb(255,255,255); fill-opacity: 0; fill-rule: nonzero; opacity: 1;" vector-effect="non-scaling-stroke"  x="-50" y="-50" rx="0" ry="0" width="100" height="100" />
</g>
		<g transform="matrix(1 0 0 1 -14.26 141.11)"  >
<rect style="stroke: none; stroke-width: 1; stroke-dasharray: none; stroke-linecap: butt; stroke-dashoffset: 0; stroke-linejoin: miter; stroke-miterlimit: 4; fill: rgb(255,255,255); fill-rule: nonzero; opacity: 1; visibility: hidden;" vector-effect="non-scaling-stroke"  x="-885.5" y="-1001" rx="0" ry="0" width="1771" height="2002" />
</g>
		<g transform="matrix(4.11 0 0 4.11 0 -35.32)"  >
<path style="stroke: none; stroke-width: 1; stroke-dasharray: none; stroke-linecap: butt; stroke-dashoffset: 0; stroke-linejoin: miter; stroke-miterlimit: 4; fill: none; fill-rule: nonzero; opacity: 1;" vector-effect="non-scaling-stroke"  transform=" translate(-269.29, -269.29)" d="M 0 0 L 538.584 0 L 538.584 538.583 L 0 538.583 L 0 0 z" stroke-linecap="round" />
</g>
		<g transform="matrix(4.11 0 0 4.11 0.64 155.54)"  >
<path style="stroke: none; stroke-width: 1; stroke-dasharray: none; stroke-linecap: butt; stroke-dashoffset: 0; stroke-linejoin: miter; stroke-miterlimit: 4; fill: rgb(32,98,175); fill-rule: nonzero; opacity: 1;" vector-effect="non-scaling-stroke"  transform=" translate(-269.29, -315.53)" d="M 405.5 467.454 L 269.29 504.13 L 133.07800000000003 467.454 L 101.64600000000003 126.92900000000003 L 436.93600000000004 126.92900000000003 L 405.5 467.454 z" stroke-linecap="round" />
</g>
		<g transform="matrix(4.11 0 0 4.11 281.16 152.44)"  >
<path style="stroke: none; stroke-width: 1; stroke-dasharray: none; stroke-linecap: butt; stroke-dashoffset: 0; stroke-linejoin: miter; stroke-miterlimit: 4; fill: rgb(60,156,215); fill-rule: nonzero; opacity: 1;" vector-effect="non-scaling-stroke"  transform=" translate(-337.28, -314.74)" d="M 269.289 154.511 L 269.289 474.87800000000004 L 269.597 474.96200000000005 L 379.82599999999996 445.28000000000003 L 405.26899999999995 154.51100000000002 L 269.289 154.51100000000002 z" stroke-linecap="round" />
</g>
		<g transform="matrix(4.11 0 0 4.11 14.85 -79.16)"  >
<path style="stroke: none; stroke-width: 1; stroke-dasharray: none; stroke-linecap: butt; stroke-dashoffset: 0; stroke-linejoin: miter; stroke-miterlimit: 4; fill: rgb(255,255,255); fill-rule: nonzero; opacity: 1;" vector-effect="non-scaling-stroke"  transform=" translate(-272.63, -258.31)" d="M 269.168 239.656 L 171.678 280.258 L 174.911 320.457 L 269.168 280.156 L 369.433 237.288 L 373.59 196.166 L 269.168 239.656 z" stroke-linecap="round" />
</g>
		<g transform="matrix(4.11 0 0 4.11 -199.75 10.47)"  >
<linearGradient id="SVGID_SVGID_43_4" gradientUnits="userSpaceOnUse" gradientTransform="matrix(1 0 0 -1 1045.93 1658.76)"  x1="-825.508" y1="1338.301" x2="-825.508" y2="1419.102">
<stop offset="38.7%" style="stop-color:rgb(209,211,212);stop-opacity: 0"/>
<stop offset="100%" style="stop-color:rgb(209,211,212);stop-opacity: 1"/>
</linearGradient>
<path style="stroke: none; stroke-width: 1; stroke-dasharray: none; stroke-linecap: butt; stroke-dashoffset: 0; stroke-linejoin: miter; stroke-miterlimit: 4; fill: url(#SVGID_SVGID_43_4); fill-rule: nonzero; opacity: 1;" vector-effect="non-scaling-stroke"  transform=" translate(-220.42, -280.06)" d="M 171.677 280.258 L 174.91 320.457 L 269.16700000000003 280.156 L 269.16700000000003 239.656 L 171.67700000000002 280.258 z" stroke-linecap="round" />
</g>
		<g transform="matrix(4.11 0 0 4.11 215.81 -161.98)"  >
<linearGradient id="SVGID_SVGID_44_5" gradientUnits="userSpaceOnUse" gradientTransform="matrix(1 0 0 -1 1045.93 1658.76)"  x1="-724.552" y1="1378.602" x2="-724.552" y2="1462.591">
<stop offset="38.7%" style="stop-color:rgb(209,211,212);stop-opacity: 0"/>
<stop offset="100%" style="stop-color:rgb(209,211,212);stop-opacity: 1"/>
</linearGradient>
<path style="stroke: none; stroke-width: 1; stroke-dasharray: none; stroke-linecap: butt; stroke-dashoffset: 0; stroke-linejoin: miter; stroke-miterlimit: 4; fill: url(#SVGID_SVGID_44_5); fill-rule: nonzero; opacity: 1;" vector-effect="non-scaling-stroke"  transform=" translate(-321.38, -238.16)" d="M 373.59 196.167 L 269.168 239.656 L 269.168 280.156 L 369.433 237.288 L 373.59 196.167 z" stroke-linecap="round" />
</g>
		<g transform="matrix(4.11 0 0 4.11 -0.66 324.86)"  >
<linearGradient id="SVGID_SVGID_45_6" gradientUnits="userSpaceOnUse" gradientTransform="matrix(1 0 0 -1 1045.93 1658.76)"  x1="-874.103" y1="1302.263" x2="-680.039" y2="1302.263">
<stop offset="0%" style="stop-color:rgb(232,231,229);stop-opacity: 1"/>
<stop offset="100%" style="stop-color:rgb(255,255,255);stop-opacity: 1"/>
</linearGradient>
<path style="stroke: none; stroke-width: 1; stroke-dasharray: none; stroke-linecap: butt; stroke-dashoffset: 0; stroke-linejoin: miter; stroke-miterlimit: 4; fill: url(#SVGID_SVGID_45_6); fill-rule: nonzero; opacity: 1;" vector-effect="non-scaling-stroke"  transform=" translate(-268.86, -356.5)" d="M 171.827 280.258 L 175.061 320.457 L 319.68600000000004 320.918 L 316.451 374.516 L 268.861 387.91400000000004 L 223.113 376.36300000000006 L 220.341 343.095 L 177.833 343.095 L 183.378 407.32000000000005 L 269.323 432.732 L 354.80199999999996 407.781 L 365.89199999999994 280.25800000000004 L 171.827 280.25800000000004 z" stroke-linecap="round" />
</g>
		<g transform="matrix(4.11 0 0 4.11 -199.75 324.87)"  >
<path style="stroke: none; stroke-width: 1; stroke-dasharray: none; stroke-linecap: butt; stroke-dashoffset: 0; stroke-linejoin: miter; stroke-miterlimit: 4; fill: rgb(0,0,0); fill-rule: nonzero; opacity: 0.05;" vector-effect="non-scaling-stroke"  transform=" translate(-220.42, -356.5)" d="M 269.168 280.258 L 171.678 280.258 L 174.911 320.457 L 269.168 320.758 L 269.168 280.258 z M 269.168 387.786 L 268.706 387.915 L 222.96400000000003 376.36400000000003 L 220.19200000000004 343.096 L 177.68500000000003 343.096 L 183.22900000000004 407.321 L 269.168 432.733 L 269.168 387.786 z" stroke-linecap="round" />
</g>
		<g transform="matrix(4.11 0 0 4.11 -3.24 -250.09)"  >
<linearGradient id="SVGID_SVGID_46_7" gradientUnits="userSpaceOnUse" gradientTransform="matrix(1 0 0 -1 1045.93 1658.76)"  x1="-883.032" y1="1442.031" x2="-672.341" y2="1442.031">
<stop offset="0%" style="stop-color:rgb(232,231,229);stop-opacity: 1"/>
<stop offset="100%" style="stop-color:rgb(255,255,255);stop-opacity: 1"/>
</linearGradient>
<path style="stroke: none; stroke-width: 1; stroke-dasharray: none; stroke-linecap: butt; stroke-dashoffset: 0; stroke-linejoin: miter; stroke-miterlimit: 4; fill: url(#SVGID_SVGID_46_7); fill-rule: nonzero; opacity: 1;" vector-effect="non-scaling-stroke"  transform=" translate(-268.24, -216.73)" d="M 162.898 196.167 L 373.59 196.167 L 369.433 237.289 L 167.98 237.289 L 162.898 196.16699999999997 z" stroke-linecap="round" />
</g>
		<g transform="matrix(4.11 0 0 4.11 -217.84 -250.09)"  >
<path style="stroke: none; stroke-width: 1; stroke-dasharray: none; stroke-linecap: butt; stroke-dashoffset: 0; stroke-linejoin: miter; stroke-miterlimit: 4; fill: rgb(0,0,0); fill-rule: nonzero; opacity: 0.05;" vector-effect="non-scaling-stroke"  transform=" translate(-216.03, -216.73)" d="M 269.168 196.167 L 162.89800000000002 196.167 L 167.98000000000002 237.289 L 269.168 237.289 L 269.168 196.16699999999997 z" stroke-linecap="round" />
</g>
</g>
</g>
</svg>