<?xml version="1.0" encoding="UTF-8" standalone="no" ?>
<!DOCTYPE svg PUBLIC "-//W3C//DTD SVG 1.1//EN" "http://www.w3.org/Graphics/SVG/1.1/DTD/svg11.dtd">
<svg xmlns="http://www.w3.org/2000/svg" xmlns:xlink="http://www.w3.org/1999/xlink" version="1.1" width="1771" height="2002" viewBox="0 0 1771 2002" xml:space="preserve">
<desc>Created with Fabric.js 4.2.0</desc>
<defs>
</defs>
<g transform="matrix(1 0 0 1 885.5 1001)" id="7cc00706-b48f-4a40-bb54-ab4a3df3bb54"  >
<rect style="stroke: none; stroke-width: 1; stroke-dasharray: none; stroke-linecap: butt; stroke-dashoffset: 0; stroke-linejoin: miter; stroke-miterlimit: 4; fill: rgb(255,255,255); fill-rule: nonzero; opacity: 1; visibility: hidden;" vector-effect="non-scaling-stroke"  x="-885.5" y="-1001" rx="0" ry="0" width="1771" height="2002" />
</g>
<g transform="matrix(Infinity NaN NaN Infinity 0 0)" id="82205db0-0a6a-4ff5-b433-5ff197e667d6"  >
</g>
<g transform="matrix(6.54 0 0 6.54 892.28 1007.78)" id="3a02982c-e863-4c71-87e5-127105474171"  >
<path style="stroke: rgb(0,0,0); stroke-width: 0; stroke-dasharray: none; stroke-linecap: butt; stroke-dashoffset: 0; stroke-linejoin: miter; stroke-miterlimit: 4; fill: rgb(222,76,54); fill-rule: nonzero; opacity: 1;" vector-effect="non-scaling-stroke"  transform=" translate(-128, -128)" d="M 251.172 116.594 L 139.4 4.828 C 132.967 -1.609 122.527 -1.609 116.08600000000001 4.828 L 92.876 28.038 L 122.319 57.481 C 129.161 55.169000000000004 137.007 56.72 142.461 62.174 C 147.941 67.663 149.48100000000002 75.576 147.113 82.44 L 175.488 110.816 C 182.353 108.45100000000001 190.274 109.98100000000001 195.757 115.473 C 203.42000000000002 123.133 203.42000000000002 135.548 195.757 143.213 C 188.092 150.879 175.67700000000002 150.879 168.008 143.213 C 162.244 137.44299999999998 160.82000000000002 128.978 163.738 121.877 L 137.276 95.41499999999999 L 137.27300000000002 165.052 C 139.19127701146118 166.00048458903103 140.9432898426861 167.25336963217762 142.461 168.762 C 150.12400000000002 176.422 150.12400000000002 188.838 142.461 196.50900000000001 C 134.79600000000002 204.17100000000002 122.37500000000001 204.17100000000002 114.72100000000002 196.50900000000001 C 107.05800000000002 188.83800000000002 107.05800000000002 176.423 114.72100000000002 168.763 C 116.55738811133776 166.92568557971452 118.73978539357795 165.47064076344444 121.14200000000002 164.482 L 121.14200000000002 94.196 C 118.73628984091705 93.21393615539255 116.55266113893121 91.75807032869868 114.72100000000002 89.91499999999999 C 108.91500000000002 84.11699999999999 107.51900000000002 75.59799999999998 110.49400000000001 68.469 L 81.47 39.442 L 4.829999999999998 116.077 C -1.610000000000002 122.52 -1.610000000000002 132.961 4.829999999999998 139.399 L 116.604 251.167 C 123.039 257.605 133.477 257.605 139.92 251.167 L 251.171 139.918 C 257.609 133.478 257.609 123.031 251.171 116.59400000000001" stroke-linecap="round" />
</g>
</svg>