<?xml version="1.0" encoding="UTF-8" standalone="no" ?>
<!DOCTYPE svg PUBLIC "-//W3C//DTD SVG 1.1//EN" "http://www.w3.org/Graphics/SVG/1.1/DTD/svg11.dtd">
<svg xmlns="http://www.w3.org/2000/svg" xmlns:xlink="http://www.w3.org/1999/xlink" version="1.1" width="1771" height="2002" viewBox="0 0 1771 2002" xml:space="preserve">
<desc>Created with Fabric.js 4.2.0</desc>
<defs>
</defs>
<g transform="matrix(1 0 0 1 885.5 1001)" id="60dc808c-b82b-4484-af0f-005947a73c5e"  >
<rect style="stroke: none; stroke-width: 1; stroke-dasharray: none; stroke-linecap: butt; stroke-dashoffset: 0; stroke-linejoin: miter; stroke-miterlimit: 4; fill: rgb(255,255,255); fill-rule: nonzero; opacity: 1; visibility: hidden;" vector-effect="non-scaling-stroke"  x="-885.5" y="-1001" rx="0" ry="0" width="1771" height="2002" />
</g>
<g transform="matrix(Infinity NaN NaN Infinity 0 0)" id="4943fa93-b118-4294-8389-d4ed7e33753f"  >
</g>
<g transform="matrix(0.63 0 0 0.63 885.5 1001)"  >
<g style="" vector-effect="non-scaling-stroke"   >
		<g transform="matrix(2.38 0 0 2.38 0 0)"  >
<path style="stroke: none; stroke-width: 1; stroke-dasharray: none; stroke-linecap: butt; stroke-dashoffset: 0; stroke-linejoin: miter; stroke-miterlimit: 4; fill: rgb(240,219,79); fill-rule: nonzero; opacity: 1;" vector-effect="non-scaling-stroke"  transform=" translate(-526, -526)" d="M 0 0 L 1052 0 L 1052 1052 L 0 1052 z" stroke-linecap="round" />
</g>
		<g transform="matrix(2.38 0 0 2.38 229.62 468.55)"  >
<path style="stroke: none; stroke-width: 1; stroke-dasharray: none; stroke-linecap: butt; stroke-dashoffset: 0; stroke-linejoin: miter; stroke-miterlimit: 4; fill: rgb(50,51,48); fill-rule: nonzero; opacity: 1;" vector-effect="non-scaling-stroke"  transform=" translate(-622.62, -723.17)" d="M 965.9 801.1 C 958.1999999999999 753.1 926.9 712.8000000000001 834.2 675.2 C 802 660.4000000000001 766.1 649.801 755.4000000000001 625.4000000000001 C 751.6000000000001 611.2 751.1000000000001 603.2 753.5000000000001 594.6000000000001 C 760.4000000000001 566.7000000000002 793.7000000000002 558.0000000000001 820.1000000000001 566.0000000000001 C 837.1000000000001 571.7000000000002 853.2000000000002 584.8010000000002 862.9000000000001 605.7000000000002 C 908.3000000000001 576.3010000000002 908.2 576.5000000000001 939.9000000000001 556.3010000000002 C 928.3000000000001 538.3010000000002 922.1000000000001 530.0000000000001 914.5000000000001 522.3010000000002 C 887.2000000000002 491.80100000000016 850.0000000000001 476.10100000000017 790.5000000000001 477.30100000000016 C 780.2000000000002 478.60100000000017 769.8010000000002 480.00000000000017 759.5000000000001 481.30100000000016 C 729.8010000000002 488.80100000000016 701.5000000000001 504.4010000000002 684.9000000000001 525.3010000000002 C 635.1000000000001 581.8010000000002 649.3000000000001 680.7000000000002 709.9000000000001 721.4010000000002 C 769.6000000000001 766.2010000000001 857.3000000000001 776.4010000000002 868.5000000000001 818.3010000000002 C 879.4000000000001 869.6010000000001 830.8010000000002 886.2000000000002 782.5000000000001 880.3010000000002 C 746.9000000000001 872.9010000000002 727.1010000000001 854.8010000000002 705.7000000000002 821.9010000000002 C 666.3010000000002 844.7010000000001 666.3010000000002 844.7010000000001 625.8010000000002 868.0010000000002 C 635.4010000000002 889.0010000000002 645.5000000000001 898.5010000000002 661.6010000000001 916.7010000000002 C 737.8010000000002 994.0010000000002 928.5000000000001 990.2010000000002 962.7010000000001 873.2010000000002 C 964.1000000000001 869.2000000000003 973.3010000000002 842.4000000000002 965.9000000000001 801.1000000000003 z M 571.9 483.5 L 473.5 483.5 C 473.5 568.5 473.101 652.9 473.101 737.9 C 473.101 792 475.901 841.6 467.101 856.8 C 452.701 886.699 415.401 883 398.401 877.199 C 381.101 868.699 372.301 856.5989999999999 362.101 839.5 C 359.301 834.6 357.201 830.8 356.5 830.5 C 329.801 846.8 303.2 863.199 276.5 879.5 C 289.801 906.8 309.4 930.5 334.5 945.899 C 372 968.399 422.4 975.299 475.101 963.199 C 509.401 953.199 539 932.5 554.5 901 C 576.9 859.7 572.1 809.7 571.9 754.4 C 572.4 664.1999999999999 571.9 574 571.9 483.5 z" stroke-linecap="round" />
</g>
</g>
</g>
</svg>