<?xml version="1.0" encoding="UTF-8" standalone="no" ?>
<!DOCTYPE svg PUBLIC "-//W3C//DTD SVG 1.1//EN" "http://www.w3.org/Graphics/SVG/1.1/DTD/svg11.dtd">
<svg xmlns="http://www.w3.org/2000/svg" xmlns:xlink="http://www.w3.org/1999/xlink" version="1.1" width="1771" height="2002" viewBox="0 0 1771 2002" xml:space="preserve">
<desc>Created with Fabric.js 4.2.0</desc>
<defs>
</defs>
<rect x="0" y="0" width="100%" height="100%" fill="transparent"></rect>
<g transform="matrix(1 0 0 1 885.5 1001)" id="213de841-774b-498a-b640-3c6f994da276"  >
<rect style="stroke: none; stroke-width: 1; stroke-dasharray: none; stroke-linecap: butt; stroke-dashoffset: 0; stroke-linejoin: miter; stroke-miterlimit: 4; fill: rgb(255,255,255); fill-opacity: 0; fill-rule: nonzero; opacity: 1;" vector-effect="non-scaling-stroke"  x="-885.5" y="-1001" rx="0" ry="0" width="1771" height="2002" />
</g>
<g transform="matrix(Infinity NaN NaN Infinity 0 0)" id="29188d37-84af-4757-94e7-9b988023059a"  >
</g>
<g transform="matrix(0.65 0 0 0.65 885.5 1001)"  >
<g style="" vector-effect="non-scaling-stroke"   >
		<g transform="matrix(9.77 0 0 9.77 0 0)"  >
<path style="stroke: none; stroke-width: 1; stroke-dasharray: none; stroke-linecap: butt; stroke-dashoffset: 0; stroke-linejoin: miter; stroke-miterlimit: 4; fill: rgb(203,56,55); fill-rule: nonzero; opacity: 1;" vector-effect="non-scaling-stroke"  transform=" translate(-128, -49.91)" d="M 0 0 L 0 85.498 L 71.166 85.498 L 71.166 99.83 L 128 99.83 L 128 85.498 L 256 85.498 L 256 0 L 0 0 z" stroke-linecap="round" />
</g>
		<g transform="matrix(9.77 0 0 9.77 2.41 0)"  >
<path style="stroke: none; stroke-width: 1; stroke-dasharray: none; stroke-linecap: butt; stroke-dashoffset: 0; stroke-linejoin: miter; stroke-miterlimit: 4; fill: rgb(255,255,255); fill-rule: nonzero; opacity: 1;" vector-effect="non-scaling-stroke"  transform=" translate(-128.25, -49.91)" d="M 42.502 14.332 L 14.332 14.332 L 14.332 71.166 L 42.502 71.166 L 42.502 28.664 L 56.834 28.664 L 56.834 71.166 L 71.166 71.166 L 71.166 14.332 L 42.502 14.332 z M 85.498 14.332 L 85.498 85.49799999999999 L 114.162 85.49799999999999 L 114.162 71.166 L 142.332 71.166 L 142.332 14.332 L 85.498 14.332 z M 128 56.834 L 114.162 56.834 L 114.162 28.664 L 128 28.664 L 128 56.834 z M 184.834 14.332 L 156.664 14.332 L 156.664 71.166 L 184.834 71.166 L 184.834 28.664 L 199.166 28.664 L 199.166 71.166 L 213.498 71.166 L 213.498 28.664 L 227.82999999999998 28.664 L 227.82999999999998 71.166 L 242.16199999999998 71.166 L 242.16199999999998 14.332 L 184.83399999999997 14.332 z" stroke-linecap="round" />
</g>
</g>
</g>
</svg>