<?xml version="1.0" encoding="UTF-8" standalone="no" ?>
<!DOCTYPE svg PUBLIC "-//W3C//DTD SVG 1.1//EN" "http://www.w3.org/Graphics/SVG/1.1/DTD/svg11.dtd">
<svg xmlns="http://www.w3.org/2000/svg" xmlns:xlink="http://www.w3.org/1999/xlink" version="1.1" width="1771" height="2002" viewBox="0 0 1771 2002" xml:space="preserve">
<desc>Created with Fabric.js 4.2.0</desc>
<defs>
</defs>
<rect x="0" y="0" width="100%" height="100%" fill="transparent"></rect>
<g transform="matrix(0 0 0 0 0 0)" id="82205db0-0a6a-4ff5-b433-5ff197e667d6"  >
</g>
<g transform="matrix(1 0 0 1 885.5 1001)" id="7cc00706-b48f-4a40-bb54-ab4a3df3bb54"  >
<rect style="stroke: none; stroke-width: 1; stroke-dasharray: none; stroke-linecap: butt; stroke-dashoffset: 0; stroke-linejoin: miter; stroke-miterlimit: 4; fill: rgb(255,255,255); fill-rule: nonzero; opacity: 1;" vector-effect="non-scaling-stroke"  x="-885.5" y="-1001" rx="0" ry="0" width="1771" height="2002" />
</g>
<g transform="matrix(0.66 0 0 0.66 891.44 1005.86)"  >
<g style="" vector-effect="non-scaling-stroke"   >
		<g transform="matrix(9.77 0 0 9.77 0.56 0.45)"  >
<rect style="stroke: none; stroke-width: 1; stroke-dasharray: none; stroke-linecap: butt; stroke-dashoffset: 0; stroke-linejoin: miter; stroke-miterlimit: 4; fill: rgb(0,0,0); fill-rule: nonzero; opacity: 1;" vector-effect="non-scaling-stroke"  x="-128" y="-104.67" rx="5" ry="5" width="256" height="209.34" />
</g>
		<g transform="matrix(9.77 0 0 9.77 -718.51 -617.19)"  >
<path style="stroke: none; stroke-width: 1; stroke-dasharray: none; stroke-linecap: butt; stroke-dashoffset: 0; stroke-linejoin: miter; stroke-miterlimit: 4; fill: rgb(255,255,255); fill-rule: nonzero; opacity: 1;" vector-effect="non-scaling-stroke"  transform=" translate(-54.41, -41.46)" d="M 28.241 21.774 C 27.386 20.918 26.353 20.490000000000002 25.143 20.490000000000002 C 23.933 20.490000000000002 22.897000000000002 20.922 22.033 21.786 C 21.181 22.638 20.749000000000002 23.674 20.749000000000002 24.884 C 20.749000000000002 26.094 21.181 27.131 22.033 27.982 L 35.475 41.424 L 22.045 54.854 C 21.181 55.717999999999996 20.749000000000002 56.754 20.737000000000002 57.964 C 20.749000000000002 59.174 21.181 60.211 22.033 61.062 C 22.897000000000002 61.913999999999994 23.933 62.346 25.131 62.358 C 26.353 62.358 27.39 61.925999999999995 28.254 61.062 L 43.189 46.114999999999995 C 46.324 42.992 46.324 39.85699999999999 43.189 36.721 L 28.241 21.774 z M 86.786 54.878 C 85.922 54.014 84.873 53.582 83.651 53.582 L 83.651 53.576 L 54.817 53.576 L 54.817 53.582 C 53.595 53.582 52.557 54.014 51.694 54.878 C 50.830000000000005 55.742 50.398 56.779 50.398 58.001 C 50.398 59.223 50.830000000000005 60.272 51.694 61.135999999999996 C 52.558 61.99999999999999 53.594 62.431999999999995 54.817 62.431999999999995 L 54.817 62.425999999999995 L 83.65 62.425999999999995 L 83.65 62.431999999999995 C 84.872 62.431999999999995 85.92 61.99999999999999 86.78500000000001 61.135999999999996 C 87.64900000000002 60.272 88.08100000000002 59.223 88.08100000000002 58.001 C 88.08100000000002 56.778999999999996 87.64900000000002 55.742 86.78500000000001 54.878 z" stroke-linecap="round" />
</g>
</g>
</g>
</svg>